<svg width="600" height="600" viewBox="0 0 600 600" fill="none" xmlns="http://www.w3.org/2000/svg">
<path d="M451.182 0H148.818C66.6046 0 0 66.6046 0 148.818V451.182C0 533.352 66.6046 600 148.818 600H451.182C533.352 600 600 533.395 600 451.182V148.818C599.957 66.6046 533.352 0 451.182 0ZM339 153.289H440.433C443.959 153.289 446.84 156.17 446.84 159.696V261.129L446.969 261.258C446.969 266.891 439.96 269.772 435.918 265.773L334.485 164.34C330.357 160.212 333.238 153.289 339 153.289ZM261 446.754H159.567C156.041 446.754 153.16 443.873 153.16 440.347V338.914L153.031 338.785C153.031 333.152 160.04 330.271 164.082 334.27L265.515 435.703C269.643 439.831 266.762 446.754 261 446.754ZM471.521 378.945L378.988 471.478C371.119 479.346 358.306 479.346 350.437 471.478L128.565 249.606C120.697 241.737 120.697 228.924 128.565 221.055L221.098 128.522C228.967 120.654 241.737 120.654 249.649 128.522L471.521 350.394C479.389 358.263 479.389 371.033 471.521 378.945Z" fill="black"/>
</svg>
