<svg width="24" height="24" viewBox="0 0 24 24" fill="none" xmlns="http://www.w3.org/2000/svg">
<g id="Frame 82111">
<path id="Vector" d="M18.0476 0H5.95236C2.66496 0 0 2.66496 0 5.95236V18.0476C0 21.335 2.66496 24 5.95236 24H18.0476C21.335 24 24 21.335 24 18.0476V5.95236C24 2.66496 21.335 0 18.0476 0Z" fill="#ff5050"/>
<path id="Vector_2" d="M8.84553 5.14226L5.14364 8.84415C4.82835 9.15945 4.82835 9.67063 5.14364 9.98592L14.019 18.8613C14.3343 19.1765 14.8454 19.1765 15.1607 18.8613L18.8626 15.1594C19.1779 14.8441 19.1779 14.3329 18.8626 14.0176L9.98731 5.14226C9.67201 4.82697 9.16083 4.82697 8.84553 5.14226Z" fill="#FEFFF8"/>
<path id="Vector_3" d="M17.8714 10.4454V6.38856C17.8714 6.24815 17.7561 6.13281 17.6157 6.13281H13.5589C13.3282 6.13281 13.2129 6.40862 13.3783 6.5741L17.4352 10.6309C17.5956 10.7914 17.8765 10.6761 17.8765 10.4504L17.8714 10.4454Z" fill="#FEFFF8"/>
<path id="Vector_4" d="M6.12855 13.5591V17.6159C6.12855 17.7564 6.24389 17.8717 6.3843 17.8717H10.4411C10.6718 17.8717 10.7871 17.5959 10.6217 17.4304L6.56482 13.3736C6.40435 13.2131 6.12354 13.3284 6.12354 13.5541L6.12855 13.5591Z" fill="#FEFFF8"/>
</g>
</svg>
